name Walk1.mot
datacolumns 19
datarows 12
range 2.15000000 2.16100000
endheader

                time	   L_ground_force_vx	   L_ground_force_vy	   L_ground_force_vz	   L_ground_force_px	   L_ground_force_py	   L_ground_force_pz	   R_ground_force_vx	   R_ground_force_vy	   R_ground_force_vz	   R_ground_force_px	   R_ground_force_py	   R_ground_force_pz	   L_ground_torque_x	   L_ground_torque_y	   L_ground_torque_z	   R_ground_torque_x	   R_ground_torque_y	   R_ground_torque_z	
          2.15000000	         -0.00008693	          0.00177028	         -0.00086507	         -0.00015323	          0.00000000	         -0.00002510	        -24.48782657	        545.04698991	        -32.19980626	          0.12820697	          0.00000000	          0.09657468	          0.00000000	          0.00009323	          0.00000000	          0.00000000	          0.39322733	          0.00000000	
          2.15100000	         -0.00052471	          0.00017177	         -0.00082332	         -0.00014222	          0.00000000	         -0.00002329	        -24.01915694	        543.90677562	        -32.14825836	          0.12844961	          0.00000000	          0.09667768	          0.00000000	          0.00008881	          0.00000000	          0.00000000	          0.39786704	          0.00000000	
          2.15200000	         -0.00092329	         -0.00129148	         -0.00078201	         -0.00013161	          0.00000000	         -0.00002155	        -23.55317841	        542.78373820	        -32.09701898	          0.12869295	          0.00000000	          0.09678134	          0.00000000	          0.00008444	          0.00000000	          0.00000000	          0.40277088	          0.00000000	
          2.15300000	         -0.00128448	         -0.00262543	         -0.00074126	         -0.00012140	          0.00000000	         -0.00001988	        -23.08983452	        541.67798511	        -32.04603798	          0.12893700	          0.00000000	          0.09688565	          0.00000000	          0.00008012	          0.00000000	          0.00000000	          0.40793797	          0.00000000	
          2.15400000	         -0.00161012	         -0.00383605	         -0.00070117	         -0.00011161	          0.00000000	         -0.00001827	        -22.62906648	        540.58960978	        -31.99527227	          0.12918175	          0.00000000	          0.09699057	          0.00000000	          0.00007586	          0.00000000	          0.00000000	          0.41336684	          0.00000000	
          2.15500000	         -0.00190198	         -0.00492923	         -0.00066184	         -0.00010222	          0.00000000	         -0.00001673	        -22.17081378	        539.51869312	        -31.94468560	          0.12942719	          0.00000000	          0.09709606	          0.00000000	          0.00007168	          0.00000000	          0.00000000	          0.41905552	          0.00000000	
          2.15600000	         -0.00216184	         -0.00591085	         -0.00062336	         -0.00009324	          0.00000000	         -0.00001526	        -21.71501508	        538.46530609	        -31.89424780	          0.12967329	          0.00000000	          0.09720209	          0.00000000	          0.00006759	          0.00000000	          0.00000000	          0.42500146	          0.00000000	
          2.15700000	         -0.00239143	         -0.00678667	         -0.00058579	         -0.00008468	          0.00000000	         -0.00001385	        -21.26160906	        537.42951254	        -31.84393408	          0.12992003	          0.00000000	          0.09730861	          0.00000000	          0.00006358	          0.00000000	          0.00000000	          0.43120134	          0.00000000	
          2.15800000	         -0.00259247	         -0.00756237	         -0.00054920	         -0.00007652	          0.00000000	         -0.00001252	        -20.81053537	        536.41137145	        -31.79372448	          0.13016737	          0.00000000	          0.09741558	          0.00000000	          0.00005968	          0.00000000	          0.00000000	          0.43765081	          0.00000000	
          2.15900000	         -0.00276662	         -0.00824355	         -0.00051365	         -0.00006877	          0.00000000	         -0.00001125	        -20.36173538	        535.41093785	        -31.74360381	          0.13041527	          0.00000000	          0.09752296	          0.00000000	          0.00005588	          0.00000000	          0.00000000	          0.44434430	          0.00000000	
          2.16000000	         -0.00291551	         -0.00883566	         -0.00047918	         -0.00006142	          0.00000000	         -0.00001004	        -19.91515282	        534.42826230	        -31.69356196	          0.13066368	          0.00000000	          0.09763071	          0.00000000	          0.00005220	          0.00000000	          0.00000000	          0.45127495	          0.00000000	
          2.16100000	         -0.00304072	         -0.00934404	         -0.00044583	         -0.00005446	          0.00000000	         -0.00000890	        -19.47073421	        533.46338930	        -31.64359425	          0.13091258	          0.00000000	          0.09773878	          0.00000000	          0.00004863	          0.00000000	          0.00000000	          0.45843471	          0.00000000	
